<?xml version="1.0" encoding="utf-8"?>
<!-- Generator: Adobe Illustrator 27.9.1, SVG Export Plug-In . SVG Version: 6.00 Build 0)  -->
<svg version="1.1" id="Layer_1" xmlns="http://www.w3.org/2000/svg" xmlns:xlink="http://www.w3.org/1999/xlink" x="0px" y="0px"
	 viewBox="0 0 30 30" style="enable-background:new 0 0 30 30;" xml:space="preserve">
<style type="text/css">
	.st0{fill:#606060;}
</style>
<g>
	<path class="st0" d="M6.3,22.2c-0.5,0-0.9-0.4-0.9-0.9s0.4-0.9,0.9-0.9s0.9,0.4,0.9,0.9v0C7.2,21.8,6.7,22.2,6.3,22.2z M23.8,22.2
		H11.2c-0.5,0-0.9-0.4-0.9-0.9s0.4-0.9,0.9-0.9h12.5c0.5,0,0.9,0.4,0.9,0.9S24.2,22.2,23.8,22.2z M6.3,15.9c-0.5,0-0.9-0.4-0.9-0.9
		s0.4-0.9,0.9-0.9s0.9,0.4,0.9,0.9v0C7.2,15.5,6.7,15.9,6.3,15.9z M23.8,15.9H11.2c-0.5,0-0.9-0.4-0.9-0.9s0.4-0.9,0.9-0.9h12.5
		c0.5,0,0.9,0.4,0.9,0.9S24.2,15.9,23.8,15.9z M6.3,9.7c-0.5,0-0.9-0.4-0.9-0.9s0.4-0.9,0.9-0.9s0.9,0.4,0.9,0.9v0
		C7.2,9.2,6.7,9.7,6.3,9.7z M23.8,9.6H11.2c-0.5,0-0.9-0.4-0.9-0.9s0.4-0.9,0.9-0.9h12.5c0.5,0,0.9,0.4,0.9,0.9S24.2,9.6,23.8,9.6z"
		/>
</g>
</svg>
