<svg width="22" height="24" viewBox="0 0 22 24" fill="none" xmlns="http://www.w3.org/2000/svg">
<path d="M13.5 9.55556V18.1111M8.5 9.55556L8.5 18.1111M1 4.66667H21M18.5 4.66667V19.0889C18.5 20.4579 18.5003 21.1425 18.2278 21.6654C17.9881 22.1253 17.6051 22.4992 17.1347 22.7335C16.6 23 15.9004 23 14.5002 23H7.50024C6.10011 23 5.39953 23 4.86475 22.7335C4.39434 22.4992 4.01217 22.1253 3.77248 21.6654C3.5 21.1425 3.5 20.4579 3.5 19.0889V4.66667H18.5ZM16 4.66667H6C6 3.5277 6 2.9582 6.1903 2.50898C6.44404 1.91002 6.9304 1.43417 7.54297 1.18607C8.0024 1 8.58515 1 9.75 1H12.25C13.4149 1 13.9973 1 14.4567 1.18607C15.0693 1.43417 15.5558 1.91002 15.8096 2.50898C15.9999 2.9582 16 3.5277 16 4.66667Z" stroke="#606060" stroke-width="1.8" stroke-linecap="round" stroke-linejoin="round"/>
</svg>
