<svg width="22" height="26" viewBox="0 0 22 26" fill="none" xmlns="http://www.w3.org/2000/svg">
<path d="M8.33331 18.3333H1.66665V25M13.6666 7.66667H20.3333V1M1.11066 9.00421C1.85824 7.15389 3.1099 5.55039 4.72338 4.37598C6.33686 3.20156 8.248 2.50336 10.2385 2.36068C12.2291 2.21799 14.2194 2.63654 15.9839 3.56882C17.7484 4.5011 19.2151 5.90971 20.219 7.63449M20.89 16.9958C20.1425 18.8461 18.8908 20.4496 17.2773 21.624C15.6638 22.7984 13.7535 23.4967 11.763 23.6394C9.77247 23.782 7.7814 23.3634 6.01691 22.4312C4.25242 21.4989 2.78508 20.0903 1.78123 18.3656" stroke="#606060" stroke-width="1.8" stroke-linecap="round" stroke-linejoin="round"/>
</svg>
