<?xml version="1.0" encoding="utf-8"?>
<!-- Generator: Adobe Illustrator 27.9.1, SVG Export Plug-In . SVG Version: 6.00 Build 0)  -->
<svg version="1.1" id="Layer_1" xmlns="http://www.w3.org/2000/svg" xmlns:xlink="http://www.w3.org/1999/xlink" x="0px" y="0px"
	 viewBox="0 0 30 30" style="enable-background:new 0 0 30 30;" xml:space="preserve">
<style type="text/css">
	.st0{fill:#C4C4C4;}
</style>
<g>
	<path class="st0" d="M18.5,27.2h-7c-1.5,0-2.3,0-3-0.4c-0.6-0.3-1.2-0.8-1.5-1.5c-0.4-0.7-0.4-1.5-0.4-3V8.4H5
		C4.5,8.4,4.1,8,4.1,7.5S4.5,6.6,5,6.6h4.1c0-0.7,0.1-1.2,0.3-1.7c0.3-0.8,1-1.5,1.8-1.8c0.6-0.3,1.3-0.3,2.6-0.3h2.5
		c1.2,0,1.9,0,2.6,0.3c0.8,0.3,1.5,1,1.8,1.8c0.2,0.5,0.2,0.9,0.3,1.7H25c0.5,0,0.9,0.4,0.9,0.9S25.5,8.4,25,8.4h-1.6v13.9
		c0,1.5,0,2.3-0.4,3c-0.3,0.6-0.8,1.2-1.5,1.5C20.8,27.2,20,27.2,18.5,27.2z M8.4,8.4v13.9c0,1.2,0,1.9,0.2,2.2
		C8.7,24.8,9,25,9.3,25.2c0.3,0.2,1,0.2,2.2,0.2h7c1.2,0,1.9,0,2.2-0.2c0.3-0.2,0.5-0.4,0.7-0.7c0.2-0.3,0.2-1,0.2-2.2V8.4H8.4z
		 M10.9,6.6h8.2c0-0.5,0-0.8-0.1-1c-0.2-0.4-0.5-0.7-0.9-0.9c-0.3-0.1-0.9-0.1-1.9-0.1h-2.5c-1,0-1.6,0-1.9,0.1
		c-0.4,0.2-0.7,0.5-0.9,0.9C10.9,5.8,10.9,6.1,10.9,6.6z"/>
</g>
</svg>
