<svg width="24" height="24" viewBox="0 0 24 24" fill="none" xmlns="http://www.w3.org/2000/svg">
<path d="M3.9 9C3.9 8.50294 3.49706 8.1 3 8.1C2.50294 8.1 2.1 8.50294 2.1 9H3.9ZM15.0001 21.9C15.4972 21.9 15.9001 21.4971 15.9001 21C15.9001 20.5029 15.4972 20.1 15.0001 20.1V21.9ZM3.10899 20.454L2.30709 20.8626H2.30709L3.10899 20.454ZM3.5459 20.891L3.95449 20.0891H3.95449L3.5459 20.891ZM17.8002 17V16.1V17ZM10.2002 17V17.9V17ZM21.0002 13.8H21.9002H21.0002ZM20.7822 15.908L21.5841 16.3166L20.7822 15.908ZM19.9078 16.782L20.3164 17.5839L19.9078 16.782ZM19.9078 3.21799L20.3164 2.41608V2.41608L19.9078 3.21799ZM21.0002 6.20002H20.1002H21.0002ZM20.7822 4.09204L21.5841 3.68345L20.7822 4.09204ZM7.21799 4.09204L6.41608 3.68345V3.68345L7.21799 4.09204ZM8.0918 3.21799L8.50039 4.01989L8.50039 4.01989L8.0918 3.21799ZM7.21799 15.908L8.01989 15.4994L7.21799 15.908ZM8.0918 16.782L8.50039 15.9801L8.0918 16.782ZM13.1 13C13.1 13.4971 13.5029 13.9 14 13.9C14.4971 13.9 14.9 13.4971 14.9 13H13.1ZM14.9 7C14.9 6.50294 14.4971 6.1 14 6.1C13.5029 6.1 13.1 6.50294 13.1 7H14.9ZM11 9.1C10.5029 9.1 10.1 9.50294 10.1 10C10.1 10.4971 10.5029 10.9 11 10.9V9.1ZM17 10.9C17.4971 10.9 17.9 10.4971 17.9 10C17.9 9.50294 17.4971 9.1 17 9.1V10.9ZM2.1 9V19.4H3.9V9H2.1ZM4.6001 21.9H15.0001V20.1H4.6001V21.9ZM2.1 19.4C2.1 19.6652 2.0993 19.9182 2.11661 20.1301C2.13478 20.3525 2.17717 20.6076 2.30709 20.8626L3.9109 20.0454C3.93183 20.0865 3.91971 20.0946 3.91064 19.9835C3.9007 19.8619 3.9 19.6949 3.9 19.4H2.1ZM4.6001 20.1C4.30524 20.1 4.13814 20.0993 4.01648 20.0894C3.90527 20.0803 3.91339 20.0681 3.95449 20.0891L3.13731 21.6929C3.39232 21.8228 3.64751 21.8652 3.86991 21.8834C4.08186 21.9007 4.3349 21.9 4.6001 21.9V20.1ZM2.30709 20.8626C2.48918 21.22 2.77966 21.5107 3.13731 21.6929L3.95449 20.0891C3.93581 20.0796 3.92056 20.0644 3.9109 20.0454L2.30709 20.8626ZM7.9 13.8V6.20001H6.1V13.8H7.9ZM10.2002 3.9H17.8002V2.1H10.2002V3.9ZM17.8002 16.1H10.2002V17.9H17.8002V16.1ZM20.1002 13.8C20.1002 14.3749 20.0995 14.7519 20.076 15.0403C20.0533 15.3181 20.0139 15.4335 19.9803 15.4994L21.5841 16.3166C21.7685 15.9546 21.8382 15.576 21.87 15.1869C21.9009 14.8082 21.9002 14.3452 21.9002 13.8H20.1002ZM17.8002 17.9C18.3454 17.9 18.8083 17.9007 19.1869 17.8697C19.5761 17.8379 19.9545 17.7683 20.3164 17.5839L19.4992 15.9801C19.4332 16.0137 19.3179 16.053 19.0403 16.0757C18.752 16.0993 18.3751 16.1 17.8002 16.1V17.9ZM19.9803 15.4994C19.8751 15.706 19.7066 15.8744 19.4992 15.9801L20.3164 17.5839C20.8616 17.3061 21.3059 16.8626 21.5841 16.3166L19.9803 15.4994ZM17.8002 3.9C18.3751 3.9 18.752 3.9007 19.0403 3.92426C19.318 3.94695 19.4333 3.98629 19.4992 4.01989L20.3164 2.41608C19.9545 2.23169 19.576 2.16204 19.1869 2.13024C18.8083 2.0993 18.3454 2.1 17.8002 2.1V3.9ZM21.9002 6.20002C21.9002 5.65482 21.9009 5.19179 21.87 4.81314C21.8382 4.42398 21.7685 4.04538 21.5841 3.68345L19.9803 4.50063C20.0139 4.56652 20.0533 4.68187 20.076 4.95972C20.0995 5.24807 20.1002 5.62512 20.1002 6.20002H21.9002ZM19.4992 4.01989C19.7065 4.12554 19.875 4.29402 19.9803 4.50063L21.5841 3.68345C21.3059 3.13741 20.8617 2.69393 20.3164 2.41608L19.4992 4.01989ZM7.9 6.20001C7.9 5.62511 7.9007 5.24806 7.92426 4.95971C7.94696 4.68187 7.98632 4.56652 8.01989 4.50063L6.41608 3.68345C6.23167 4.04538 6.16203 4.42397 6.13024 4.81313C6.0993 5.19178 6.1 5.65481 6.1 6.20001H7.9ZM10.2002 2.1C9.65498 2.1 9.19187 2.0993 8.81312 2.13024C8.42393 2.16202 8.04519 2.23164 7.68321 2.41608L8.50039 4.01989C8.56623 3.98635 8.68163 3.94697 8.95966 3.92426C9.24813 3.9007 9.6253 3.9 10.2002 3.9V2.1ZM8.01989 4.50063C8.12547 4.29342 8.29364 4.12524 8.50039 4.01989L7.68321 2.41608C7.1373 2.69423 6.694 3.13801 6.41608 3.68345L8.01989 4.50063ZM6.1 13.8C6.1 14.3452 6.0993 14.8082 6.13024 15.1869C6.16203 15.576 6.23167 15.9546 6.41608 16.3166L8.01989 15.4994C7.98632 15.4335 7.94696 15.3181 7.92426 15.0403C7.9007 14.752 7.9 14.3749 7.9 13.8H6.1ZM10.2002 16.1C9.62531 16.1 9.24814 16.0993 8.95968 16.0757C8.68166 16.053 8.56624 16.0136 8.50039 15.9801L7.68321 17.5839C8.04518 17.7683 8.4239 17.8379 8.8131 17.8697C9.19186 17.9007 9.65497 17.9 10.2002 17.9V16.1ZM6.41608 16.3166C6.69401 16.862 7.13734 17.3058 7.68321 17.5839L8.50039 15.9801C8.2936 15.8747 8.12545 15.7065 8.01989 15.4994L6.41608 16.3166ZM20.1002 6.20002V13.8H21.9002V6.20002H20.1002ZM14.9 13V7H13.1V13H14.9ZM11 10.9L17 10.9V9.1L11 9.1V10.9Z" fill="white"/>
</svg>
