<?xml version="1.0" encoding="utf-8"?>
<!-- Generator: Adobe Illustrator 27.9.1, SVG Export Plug-In . SVG Version: 6.00 Build 0)  -->
<svg version="1.1" id="Layer_1" xmlns="http://www.w3.org/2000/svg" xmlns:xlink="http://www.w3.org/1999/xlink" x="0px" y="0px"
	 viewBox="0 0 22 24" style="enable-background:new 0 0 22 24;" xml:space="preserve">
<style type="text/css">
	.st0{fill:#606060;}
</style>
<g>
	<path class="st0" d="M14.5,23.9h-7c-1.5,0-2.3,0-3-0.4c-0.6-0.3-1.2-0.8-1.5-1.5c-0.4-0.7-0.4-1.5-0.4-3V5.6H1
		c-0.5,0-0.9-0.4-0.9-0.9S0.5,3.8,1,3.8h4.1c0-0.7,0.1-1.2,0.3-1.6c0.3-0.8,1-1.5,1.8-1.8c0.6-0.3,1.3-0.3,2.5-0.3h2.5
		c1.3,0,1.9,0,2.5,0.3c0.8,0.3,1.5,1,1.8,1.8c0.2,0.4,0.2,0.9,0.3,1.6H21c0.5,0,0.9,0.4,0.9,0.9S21.5,5.6,21,5.6h-1.6v13.5
		c0,1.5,0,2.3-0.4,3c-0.3,0.6-0.8,1.1-1.5,1.5C16.8,23.9,16,23.9,14.5,23.9z M4.4,5.6v13.5c0,1.2,0,1.8,0.2,2.2
		c0.2,0.3,0.4,0.5,0.7,0.7c0.3,0.2,1,0.2,2.2,0.2h7c1.2,0,1.9,0,2.2-0.2c0.3-0.2,0.5-0.4,0.7-0.7c0.2-0.3,0.2-1,0.2-2.2V5.6H4.4z
		 M6.9,3.8h8.2c0-0.4,0-0.7-0.1-0.9c-0.2-0.4-0.5-0.7-0.9-0.8c-0.3-0.1-0.9-0.1-1.9-0.1H9.8c-1,0-1.6,0-1.9,0.1
		C7.5,2.2,7.2,2.5,7,2.9C6.9,3,6.9,3.3,6.9,3.8z M13.5,19c-0.5,0-0.9-0.4-0.9-0.9V9.6c0-0.5,0.4-0.9,0.9-0.9s0.9,0.4,0.9,0.9v8.6
		C14.4,18.6,14,19,13.5,19z M8.5,19c-0.5,0-0.9-0.4-0.9-0.9V9.6c0-0.5,0.4-0.9,0.9-0.9s0.9,0.4,0.9,0.9v8.6C9.4,18.6,9,19,8.5,19z"
		/>
</g>
</svg>
