<?xml version="1.0" encoding="utf-8"?>
<!-- Generator: Adobe Illustrator 27.9.1, SVG Export Plug-In . SVG Version: 6.00 Build 0)  -->
<svg version="1.1" id="Layer_1" xmlns="http://www.w3.org/2000/svg" xmlns:xlink="http://www.w3.org/1999/xlink" x="0px" y="0px"
	 viewBox="0 0 22 26" style="enable-background:new 0 0 22 26;" xml:space="preserve">
<style type="text/css">
	.st0{fill:#606060;}
</style>
<g>
	<path class="st0" d="M1.7,25.9c-0.5,0-0.9-0.4-0.9-0.9v-6.7c0-0.5,0.4-0.9,0.9-0.9h6.7c0.5,0,0.9,0.4,0.9,0.9s-0.4,0.9-0.9,0.9H3.5
		c0.8,1,1.8,1.8,3,2.4c1.6,0.9,3.4,1.2,5.3,1.1c1.8-0.1,3.6-0.8,5-1.8c1.5-1.1,2.6-2.5,3.3-4.2c0.2-0.5,0.7-0.7,1.2-0.5
		c0.5,0.2,0.7,0.7,0.5,1.2c-0.8,2-2.2,3.7-3.9,5c-1.8,1.3-3.8,2-6,2.2c-2.2,0.2-4.3-0.3-6.2-1.3c-1.1-0.6-2.2-1.4-3-2.3V25
		C2.6,25.5,2.2,25.9,1.7,25.9z M1.1,9.9c-0.1,0-0.2,0-0.3-0.1C0.3,9.7,0.1,9.1,0.3,8.7c0.8-2,2.2-3.7,3.9-5c1.8-1.3,3.8-2,6-2.2
		c2.2-0.2,4.3,0.3,6.2,1.3c1.1,0.6,2.2,1.4,3,2.3V1c0-0.5,0.4-0.9,0.9-0.9s0.9,0.4,0.9,0.9v6.7c0,0.5-0.4,0.9-0.9,0.9h-6.7
		c-0.5,0-0.9-0.4-0.9-0.9s0.4-0.9,0.9-0.9h4.9c-0.8-1-1.8-1.8-3-2.4c-1.6-0.9-3.4-1.2-5.3-1.1C8.5,3.4,6.7,4,5.3,5.1
		C3.8,6.2,2.6,7.6,1.9,9.3C1.8,9.7,1.5,9.9,1.1,9.9z"/>
</g>
</svg>
